{
	"patcher" : 	{
		"fileversion" : 1,
		"appversion" : 		{
			"major" : 8,
			"minor" : 3,
			"revision" : 3,
			"architecture" : "x64",
			"modernui" : 1
		}
,
		"classnamespace" : "dsp.gen",
		"rect" : [ 84.0, 131.0, 1041.0, 1098.0 ],
		"bglocked" : 0,
		"openinpresentation" : 0,
		"default_fontsize" : 12.0,
		"default_fontface" : 0,
		"default_fontname" : "Arial",
		"gridonopen" : 1,
		"gridsize" : [ 15.0, 15.0 ],
		"gridsnaponopen" : 1,
		"objectsnaponopen" : 1,
		"statusbarvisible" : 2,
		"toolbarvisible" : 1,
		"lefttoolbarpinned" : 0,
		"toptoolbarpinned" : 0,
		"righttoolbarpinned" : 0,
		"bottomtoolbarpinned" : 0,
		"toolbars_unpinned_last_save" : 0,
		"tallnewobj" : 0,
		"boxanimatetime" : 200,
		"enablehscroll" : 1,
		"enablevscroll" : 1,
		"devicewidth" : 0.0,
		"description" : "",
		"digest" : "",
		"tags" : "",
		"style" : "",
		"subpatcher_template" : "",
		"assistshowspatchername" : 0,
		"boxes" : [ 			{
				"box" : 				{
					"id" : "obj-6",
					"maxclass" : "newobj",
					"numinlets" : 0,
					"numoutlets" : 1,
					"outlettype" : [ "" ],
					"patching_rect" : [ 713.0, 14.0, 28.0, 22.0 ],
					"text" : "in 3"
				}

			}
, 			{
				"box" : 				{
					"code" : "//Nonlinear control circuit maps V_b to R_f (Vactrol Resistance)\r\n\r\n\r\n// Inputs\r\nVb= clip(in1,-10.0,50.0);\r\noffset = 0.9999*in2 + 0.0001;\r\nscale = clip(in3,0.0,1.0);\r\nscale = 0.48; // This value is tuned for appropriate input range.\r\n\r\n// Constants\r\nA = 3.4645912;\r\nB = 1136.2129956;\r\nIfmin = 10.1e-6;\r\nIfmax = 40e-3;\r\nR2max = 10e3;\r\nR6max = 20e3;\r\nR7 = 33e3;\r\nR3 = 150e3;\r\nR5 = 100e3;\r\nR4 = 470e3;\r\nR8 = 4.7e3;\r\nR9 = 470;\r\nVB = 3.9;\r\nVF = 0.7;\r\nVT = 26e-3;\r\nn = 3.9696;\r\nkl = 6.3862;\r\nG = 2e5;\r\nVs = 15;\r\nk0 = 1.468e2;\r\nk1 = 4.9202e-1;\r\nk2 = 4.1667e-4;\r\nk3 = 7.3915e-9;\r\ngamma = 0.0001;\r\n\r\nR6 = scale * R6max;\r\nR1 = (1-offset)*R2max;\r\nR2 = offset*R2max;\r\n\r\nalpha = 1 + (R6+R7) * (1/R3 + 1/R5);\r\nbeta = ((1/alpha) - 1)/(R6 + R7) - 1/R8;\r\n\r\nbound1 = 600* alpha *n*VT/(G*(R6+R7-1/(alpha*beta))); \r\n\r\nIa = Vb/R5 + Vs/(R3*(1+R1/R2));\r\n\r\nV3 = 0.;\r\nIf =0.;\r\nflag = 0.;\r\nif (Ia <= -bound1)\r\n{\r\n\tV3 = -Ia/(alpha*beta);\r\n}\r\nelse if ( Ia < bound1)\r\n{\r\n\tx = G*Ia*(R6+R7-1/(alpha*beta))/(alpha*n*VT);\r\n\tw = k0 + k1*x + k2*pow(x,2) + k3*pow(x,3);\r\n\tV3 = -(alpha/G)*n*VT*w - Ia/(alpha*beta);\r\n}\r\n else {\n   V3 = kl*alpha/G*n*VT-Ia*(R6+R7);\n}\r\n\r\nIfbound1 = alpha*(Ifmin- beta*V3);\r\nIfbound2 = VB/(R6+R7);\r\nIfbound3 = (gamma*G*VB + alpha*R9*(VB*beta+Ifmax))/(gamma*G*(R6+R7) + R9);\r\n\r\nif (Ia <= Ifbound1) {\r\n\tIf = Ifmin;\r\n\t}\r\nelse if (Ia <= Ifbound2) {\r\n\tIf = beta * V3 + Ia/alpha;\r\n\t}\r\nelse if (Ia <= Ifbound3) {\r\n\tIf = gamma * G *(Ia*(R6+R7) - VB)/(alpha*R9) - beta*VB + Ia/alpha;\r\n}\r\nelse {\r\n\tIf = Ifmax;\r\n\t}\r\n\r\nRf = B + A / pow(If,1.4);\r\nout1 = Rf;\r\n",
					"fontface" : 0,
					"fontname" : "<Monospaced>",
					"fontsize" : 12.0,
					"id" : "obj-5",
					"maxclass" : "codebox",
					"numinlets" : 3,
					"numoutlets" : 1,
					"outlettype" : [ "" ],
					"patching_rect" : [ 50.0, 101.0, 682.0, 610.0 ]
				}

			}
, 			{
				"box" : 				{
					"id" : "obj-1",
					"maxclass" : "newobj",
					"numinlets" : 0,
					"numoutlets" : 1,
					"outlettype" : [ "" ],
					"patching_rect" : [ 50.0, 14.0, 28.0, 22.0 ],
					"text" : "in 1"
				}

			}
, 			{
				"box" : 				{
					"id" : "obj-2",
					"maxclass" : "newobj",
					"numinlets" : 0,
					"numoutlets" : 1,
					"outlettype" : [ "" ],
					"patching_rect" : [ 381.5, 14.0, 28.0, 22.0 ],
					"text" : "in 2"
				}

			}
, 			{
				"box" : 				{
					"id" : "obj-4",
					"maxclass" : "newobj",
					"numinlets" : 1,
					"numoutlets" : 0,
					"patching_rect" : [ 50.0, 783.0, 35.0, 22.0 ],
					"text" : "out 1"
				}

			}
 ],
		"lines" : [ 			{
				"patchline" : 				{
					"destination" : [ "obj-5", 0 ],
					"source" : [ "obj-1", 0 ]
				}

			}
, 			{
				"patchline" : 				{
					"destination" : [ "obj-5", 1 ],
					"source" : [ "obj-2", 0 ]
				}

			}
, 			{
				"patchline" : 				{
					"destination" : [ "obj-4", 0 ],
					"source" : [ "obj-5", 0 ]
				}

			}
, 			{
				"patchline" : 				{
					"destination" : [ "obj-5", 2 ],
					"source" : [ "obj-6", 0 ]
				}

			}
 ]
	}

}
